<svg width="473" height="353" viewBox="0 0 473 353" fill="none" xmlns="http://www.w3.org/2000/svg">
<path d="M316.53 38.3444C327.107 38.3444 335.68 29.7607 335.68 19.1722C335.68 8.58369 327.107 0 316.53 0C305.954 0 297.379 8.58369 297.379 19.1722C297.379 29.7607 305.954 38.3444 316.53 38.3444Z" fill="#6B6863"/>
<path d="M180.313 429.863C229.019 429.863 268.504 390.335 268.504 341.574C268.504 292.813 229.019 253.285 180.313 253.285C131.608 253.285 92.124 292.813 92.124 341.574C92.124 390.335 131.608 429.863 180.313 429.863Z" fill="#6B6863"/>
<path d="M44.1035 277.279C68.4612 277.279 88.2071 257.511 88.2071 233.126C88.2071 208.741 68.4612 188.973 44.1035 188.973C19.7459 188.973 0 208.741 0 233.126C0 257.511 19.7459 277.279 44.1035 277.279Z" fill="#6B6863"/>
<path d="M317.1 299.51C353.827 299.51 383.6 269.703 383.6 232.935C383.6 196.166 353.827 166.359 317.1 166.359C280.372 166.359 250.599 196.166 250.599 232.935C250.599 269.703 280.372 299.51 317.1 299.51Z" fill="#6B6863"/>
<path d="M453.305 429.863C502.011 429.863 541.495 390.335 541.495 341.574C541.495 292.813 502.011 253.285 453.305 253.285C404.6 253.285 365.115 292.813 365.115 341.574C365.115 390.335 404.6 429.863 453.305 429.863Z" fill="#6B6863"/>
<path d="M180.314 182.837C211.615 182.837 236.99 157.434 236.99 126.098C236.99 94.7622 211.615 69.3594 180.314 69.3594C149.014 69.3594 123.64 94.7622 123.64 126.098C123.64 157.434 149.014 182.837 180.314 182.837Z" fill="#6B6863"/>
<path d="M452.757 182.837C484.057 182.837 509.432 157.434 509.432 126.098C509.432 94.7622 484.057 69.3594 452.757 69.3594C421.456 69.3594 396.082 94.7622 396.082 126.098C396.082 157.434 421.456 182.837 452.757 182.837Z" fill="#6B6863"/>
</svg>
